<svg xmlns="http://www.w3.org/2000/svg" viewBox="0 0 48 48"><defs><style>.cls-1,.cls-2,.cls-3{fill:none;}.cls-2,.cls-3{stroke:#000;stroke-linecap:round;stroke-width:4px;}.cls-2{stroke-linejoin:round;}.cls-3{stroke-miterlimit:10;}</style></defs><title>175_t_24</title><g id="レイヤー_2" data-name="レイヤー 2"><g id="Rectangle"><rect id="rect" class="cls-1" width="48" height="48"/></g><g id="icon_data"><polyline class="cls-2" points="34.32 35 32 46 16 46 12 27 36 27 35.37 30 34.32 35 19.68 35"/><path class="cls-3" d="M18.82,7.43C15,5.3,9.4,8,9.4,8s.73,6.1,4.6,8.23,9.42-.53,9.42-.53S22.69,9.56,18.82,7.43Z"/><path class="cls-3" d="M31,17a7,7,0,0,0,3-.81C37.87,14.06,38.6,8,38.6,8s-5.55-2.66-9.42-.53S24,16,24,16V27"/></g></g></svg>